<svg width="18" height="18" viewBox="0 0 18 18" fill="none" xmlns="http://www.w3.org/2000/svg">
<path d="M6.75 6V4.5C6.75 4.10218 6.90804 3.72064 7.18934 3.43934C7.47064 3.15804 7.85218 3 8.25 3H13.5C13.8978 3 14.2794 3.15804 14.5607 3.43934C14.842 3.72064 15 4.10218 15 4.5V13.5C15 13.8978 14.842 14.2794 14.5607 14.5607C14.2794 14.842 13.8978 15 13.5 15H8.25C7.85218 15 7.47064 14.842 7.18934 14.5607C6.90804 14.2794 6.75 13.8978 6.75 13.5V12M2.25 9H12M12 9L9.75 6.75M12 9L9.75 11.25" stroke="#6C63FF" stroke-linecap="round" stroke-linejoin="round"/>
</svg>
