<svg width="13" height="16" viewBox="0 0 13 16" fill="none" xmlns="http://www.w3.org/2000/svg">
<path d="M11.75 2.75H0.5M7.625 8V11.75M4.625 8V11.75M0.999237 6.61505C0.932217 5.74386 1.62105 5 2.49481 5H9.75515C10.629 5 11.3178 5.74385 11.2508 6.61505L10.7315 13.365C10.6714 14.1465 10.0197 14.75 9.23592 14.75H3.01404C2.23024 14.75 1.57858 14.1465 1.51846 13.365L0.999237 6.61505ZM4.625 1.25C4.625 0.83579 4.96078 0.5 5.375 0.5H6.875C7.28922 0.5 7.625 0.83579 7.625 1.25V2.75H4.625V1.25Z" stroke="#E50000" stroke-linecap="round"/>
</svg>
